<svg width="169" height="43" viewBox="0 0 169 43" fill="none" xmlns="http://www.w3.org/2000/svg">
<path d="M24.7406 0L37.2022 7.1947V21.5841L24.7406 28.7788L12.279 21.5841V7.1947L24.7406 0Z" fill="#39CA88"/>
<path d="M164.429 26.2404C165.427 26.2404 166.149 25.9055 166.596 25.2355H168.862C168.521 26.1419 167.949 26.8579 167.148 27.3833C166.347 27.9088 165.44 28.1715 164.429 28.1715C163.023 28.1715 161.854 27.7117 160.921 26.7922C159.988 25.8726 159.522 24.71 159.522 23.3044C159.522 21.9251 159.975 20.7756 160.882 19.8561C161.788 18.9234 162.938 18.457 164.33 18.457C165.683 18.457 166.8 18.9168 167.68 19.8364C168.56 20.7428 169 21.8725 169 23.2256C169 23.646 168.987 23.9218 168.961 24.0532H161.69C161.808 24.71 162.117 25.2421 162.616 25.6493C163.128 26.0434 163.732 26.2404 164.429 26.2404ZM164.33 20.329C163.647 20.329 163.062 20.5195 162.576 20.9004C162.103 21.2683 161.821 21.7609 161.729 22.3783H166.793C166.688 21.7477 166.412 21.2485 165.966 20.8807C165.532 20.5129 164.987 20.329 164.33 20.329Z" fill="white"/>
<path d="M155.966 27.9154V22.6936C155.966 21.9711 155.782 21.4062 155.414 20.999C155.046 20.5917 154.494 20.3881 153.759 20.3881C153.076 20.3881 152.484 20.6443 151.985 21.1566C151.499 21.6689 151.256 22.3455 151.256 23.1862V27.9154H149.167V22.6936C149.167 21.9711 148.984 21.4062 148.616 20.999C148.248 20.5917 147.696 20.3881 146.961 20.3881C146.277 20.3881 145.693 20.6443 145.207 21.1566C144.721 21.6689 144.478 22.3323 144.478 23.1468V27.9154H142.389V18.7132H144.478V19.5605C145.121 18.8249 146.054 18.457 147.276 18.457C148.826 18.457 149.943 18.9759 150.626 20.0137C151.453 18.9759 152.596 18.457 154.054 18.457C155.263 18.457 156.228 18.8183 156.951 19.5408C157.687 20.2633 158.054 21.2223 158.054 22.4177V27.9154H155.966Z" fill="white"/>
<path d="M138.06 18.7131H140.148V27.9152H138.06V18.7131ZM137.922 16.9199V14.5356H140.267V16.9199H137.922Z" fill="white"/>
<path d="M130.803 18.7131H132.892V19.8363C133.128 19.4816 133.49 19.1926 133.976 18.9693C134.475 18.7459 135.053 18.6343 135.71 18.6343H136.557V20.6245H135.71C134.816 20.6245 134.12 20.8806 133.621 21.393C133.135 21.9053 132.892 22.5949 132.892 23.462V27.9153H130.803V18.7131Z" fill="white"/>
<path d="M128.355 15.9545C129.117 16.6901 129.498 17.6294 129.498 18.7723C129.498 19.9151 129.117 20.861 128.355 21.6098C127.607 22.3454 126.503 22.7132 125.045 22.7132H120.907V27.9153H118.739V14.8313H125.045C126.503 14.8313 127.607 15.2057 128.355 15.9545ZM126.7 20.2304C127.12 19.8889 127.331 19.4028 127.331 18.7723C127.331 18.1417 127.12 17.6622 126.7 17.3338C126.293 16.9923 125.715 16.8215 124.966 16.8215H120.907V20.723H124.966C125.715 20.723 126.293 20.5588 126.7 20.2304Z" fill="white"/>
<path d="M108.549 18.457C109.915 18.457 111.012 18.7789 111.84 19.4226C112.667 20.0663 113.081 20.9661 113.081 22.1221V27.9153H110.992V27.068C110.296 27.8037 109.265 28.1715 107.899 28.1715C106.769 28.1715 105.869 27.9088 105.199 27.3833C104.542 26.8447 104.214 26.0762 104.214 25.0779C104.214 24.3553 104.418 23.7708 104.825 23.3241C105.245 22.8643 105.751 22.5491 106.342 22.3783C106.946 22.2075 107.636 22.1221 108.411 22.1221H110.992C110.992 21.531 110.769 21.0975 110.322 20.8216C109.876 20.5326 109.291 20.3881 108.569 20.3881C107.321 20.3881 106.539 20.7822 106.224 21.5704H103.997C104.26 20.572 104.805 19.8035 105.633 19.2649C106.473 18.7263 107.446 18.457 108.549 18.457ZM110.992 24.2897V23.797H108.391C106.999 23.797 106.303 24.224 106.303 25.0779C106.303 25.4982 106.473 25.8266 106.815 26.0631C107.157 26.2864 107.629 26.3981 108.234 26.3981C109.048 26.3981 109.712 26.2142 110.224 25.8463C110.736 25.4654 110.992 24.9465 110.992 24.2897Z" fill="white"/>
<path d="M100.618 27.9154V22.6936C100.618 21.9711 100.434 21.4062 100.067 20.999C99.6988 20.5917 99.1471 20.3881 98.4114 20.3881C97.7283 20.3881 97.1372 20.6443 96.638 21.1566C96.1519 21.6689 95.9089 22.3455 95.9089 23.1862V27.9154H93.8202V22.6936C93.8202 21.9711 93.6363 21.4062 93.2684 20.999C92.9006 20.5917 92.3489 20.3881 91.6132 20.3881C90.9301 20.3881 90.3456 20.6443 89.8595 21.1566C89.3735 21.6689 89.1304 22.3323 89.1304 23.1468V27.9154H87.0417V18.7132H89.1304V19.5605C89.7741 18.8249 90.7068 18.457 91.9285 18.457C93.4786 18.457 94.5952 18.9759 95.2783 20.0137C96.1059 18.9759 97.2488 18.457 98.707 18.457C99.9155 18.457 100.881 18.8183 101.604 19.5408C102.339 20.2633 102.707 21.2223 102.707 22.4177V27.9154H100.618Z" fill="white"/>
<path d="M82.914 27.9154V22.6936C82.914 21.9711 82.7301 21.4062 82.3623 20.999C81.9944 20.5917 81.4427 20.3881 80.707 20.3881C80.0239 20.3881 79.4328 20.6443 78.9336 21.1566C78.4476 21.6689 78.2045 22.3455 78.2045 23.1862V27.9154H76.1158V22.6936C76.1158 21.9711 75.9319 21.4062 75.5641 20.999C75.1963 20.5917 74.6445 20.3881 73.9089 20.3881C73.2258 20.3881 72.6412 20.6443 72.1551 21.1566C71.6691 21.6689 71.4261 22.3323 71.4261 23.1468V27.9154H69.3374V18.7132H71.4261V19.5605C72.0698 18.8249 73.0025 18.457 74.2242 18.457C75.7743 18.457 76.8909 18.9759 77.574 20.0137C78.4016 18.9759 79.5445 18.457 81.0026 18.457C82.2112 18.457 83.1767 18.8183 83.8992 19.5408C84.6349 20.2633 85.0027 21.2223 85.0027 22.4177V27.9154H82.914Z" fill="white"/>
<path d="M62.7868 18.457C64.153 18.457 65.2499 18.7789 66.0775 19.4226C66.9051 20.0663 67.3189 20.9661 67.3189 22.1221V27.9153H65.2302V27.068C64.5339 27.8037 63.5027 28.1715 62.1365 28.1715C61.0068 28.1715 60.1069 27.9088 59.4369 27.3833C58.7801 26.8447 58.4517 26.0762 58.4517 25.0779C58.4517 24.3553 58.6553 23.7708 59.0626 23.3241C59.4829 22.8643 59.9887 22.5491 60.5798 22.3783C61.1841 22.2075 61.8738 22.1221 62.6488 22.1221H65.2302C65.2302 21.531 65.0068 21.0975 64.5602 20.8216C64.1136 20.5326 63.529 20.3881 62.8065 20.3881C61.5585 20.3881 60.7769 20.7822 60.4616 21.5704H58.235C58.4977 20.572 59.0429 19.8035 59.8705 19.2649C60.7112 18.7263 61.6833 18.457 62.7868 18.457ZM65.2302 24.2897V23.797H62.6291C61.2367 23.797 60.5404 24.224 60.5404 25.0779C60.5404 25.4982 60.7112 25.8266 61.0527 26.0631C61.3943 26.2864 61.8672 26.3981 62.4715 26.3981C63.286 26.3981 63.9494 26.2142 64.4617 25.8463C64.974 25.4654 65.2302 24.9465 65.2302 24.2897Z" fill="white"/>
<path d="M51.1012 16.5654C49.7876 16.5654 48.6972 17.0252 47.8302 17.9447C46.9632 18.8511 46.5297 19.994 46.5297 21.3734C46.5297 22.7527 46.9632 23.9021 47.8302 24.8217C48.6972 25.7281 49.7876 26.1813 51.1012 26.1813C52.1521 26.1813 53.0191 25.8923 53.7023 25.3143C54.3985 24.7363 54.8648 23.9481 55.1013 22.9497H50.6086V20.9596H57.4265C57.4265 23.1008 56.8287 24.8414 55.6333 26.1813C54.4379 27.5081 52.9403 28.1715 51.1406 28.1715C49.2095 28.1715 47.5938 27.5278 46.2932 26.2405C45.0059 24.9399 44.3622 23.3176 44.3622 21.3734C44.3622 19.4292 45.0059 17.8134 46.2932 16.526C47.5806 15.2255 49.1833 14.5752 51.1012 14.5752C52.4411 14.5752 53.6169 14.9102 54.6284 15.5801C55.653 16.2501 56.4347 17.15 56.9733 18.2797H54.5693C53.7154 17.1368 52.5594 16.5654 51.1012 16.5654Z" fill="white"/>
<path fill-rule="evenodd" clip-rule="evenodd" d="M10.3604 14.6433L0 20.6249V35.0143L12.4616 42.209L24.9232 35.0143V30.8889L24.7405 30.9943L10.3604 22.692V14.6433ZM12.2789 13.5356L12.4616 13.4302L24.9232 20.6249V28.6735L24.7405 28.779L12.2789 21.5843V13.5356Z" fill="#39CA88"/>
</svg>
