<svg width="20" height="16" viewBox="0 0 20 16" fill="none" xmlns="http://www.w3.org/2000/svg">
<path d="M19.6773 16H0.32267C0.144457 16 0 15.8486 0 15.662V1.338C0 1.15143 0.144457 1 0.32267 1H19.6773C19.7628 1 19.845 1.03562 19.9055 1.09906C19.966 1.16228 20 1.24837 20 1.338V15.662C20 15.7516 19.966 15.8377 19.9055 15.9009C19.845 15.9644 19.7628 16 19.6773 16V16ZM0.645248 15.3238H19.3548V1.67607H0.645248V15.3238Z" fill="#F0F1E7"/>
<path d="M10 11.9452C9.9316 11.9455 9.865 11.9149 9.80966 11.8575L0.133362 1.66313C0.019965 1.54548 -0.0275061 1.33628 0.0159163 1.14546C0.0593387 0.954632 0.183759 0.826019 0.323703 0.826663H19.6763C19.8162 0.826018 19.9407 0.954632 19.9841 1.14546C20.0275 1.33628 19.98 1.54548 19.8666 1.66313L10.1903 11.8575C10.135 11.9149 10.0684 11.9455 10 11.9452ZM1.29133 1.75081L10 10.9096L18.7087 1.75081H1.29133Z" fill="#F0F1E7"/>
</svg>
