<svg width="24" height="25" viewBox="0 0 24 25" fill="none" xmlns="http://www.w3.org/2000/svg">
<mask id="mask0_32_790" style="mask-type:luminance" maskUnits="userSpaceOnUse" x="0" y="0" width="24" height="25">
<path d="M24 0.5H0V24.5H24V0.5Z" fill="white"/>
</mask>
<g mask="url(#mask0_32_790)">
<path fill-rule="evenodd" clip-rule="evenodd" d="M11.3699 1.33008L11.9999 3.78008L12.6299 1.33008H11.3699ZM13.9199 4.45008L15.4399 2.35008L14.2599 1.95008L13.9199 4.45008ZM8.58988 2.34008L10.1099 4.45008L9.76988 1.95008L8.58988 2.35008V2.34008ZM18.5199 19.4201C17.8336 20.1622 16.9041 20.634 15.8999 20.7501L16.3099 20.3801C18.6999 17.9801 19.1699 15.4301 17.7099 12.7501L16.7999 11.1501L15.9999 9.48008C15.7499 8.92008 15.8099 8.50008 16.2099 8.19008C16.2875 8.13137 16.3765 8.08949 16.4712 8.06711C16.5659 8.04472 16.6642 8.04233 16.7599 8.06008C17.0399 8.11008 17.2999 8.29008 17.4799 8.56008L19.8499 12.7201C20.8199 14.3401 20.9899 16.9501 18.5199 19.4201ZM7.51988 18.9801L3.36988 14.8301C3.23472 14.6712 3.16433 14.4673 3.17272 14.2589C3.18111 14.0505 3.26766 13.8528 3.41515 13.7053C3.56264 13.5579 3.76026 13.4713 3.96867 13.4629C4.17708 13.4545 4.38102 13.5249 4.53988 13.6601L6.69988 15.8201C6.77161 15.8689 6.85823 15.891 6.9446 15.8825C7.03097 15.874 7.11159 15.8353 7.17236 15.7734C7.23313 15.7114 7.27019 15.6301 7.27705 15.5435C7.2839 15.457 7.26013 15.3708 7.20988 15.3001L5.05988 13.1401L3.59988 11.7001C3.46472 11.5412 3.39433 11.3373 3.40272 11.1289C3.41111 10.9205 3.49766 10.7228 3.64515 10.5753C3.79264 10.4279 3.99026 10.3413 4.19867 10.3329C4.40708 10.3245 4.61102 10.3949 4.76988 10.5301L8.19988 13.9701C8.23349 14.0052 8.27385 14.0331 8.31853 14.0522C8.36321 14.0712 8.4113 14.0811 8.45988 14.0811C8.50847 14.0811 8.55655 14.0712 8.60123 14.0522C8.64592 14.0331 8.68628 14.0052 8.71988 13.9701C8.75497 13.9365 8.7829 13.8961 8.80197 13.8514C8.82105 13.8067 8.83088 13.7587 8.83088 13.7101C8.83088 13.6615 8.82105 13.6134 8.80197 13.5687C8.7829 13.524 8.75497 13.4837 8.71988 13.4501L5.28988 10.0101L4.31988 9.04008C4.1684 8.88502 4.0836 8.67685 4.0836 8.46008C4.0836 8.24331 4.1684 8.03514 4.31988 7.88008C4.47663 7.72796 4.68646 7.64288 4.90488 7.64288C5.1233 7.64288 5.33314 7.72796 5.48988 7.88008L6.45988 8.85008L9.89988 12.2801C9.93333 12.3136 9.97307 12.3403 10.0169 12.3584C10.0606 12.3766 10.1075 12.386 10.1549 12.386C10.2023 12.386 10.2492 12.3766 10.293 12.3584C10.3367 12.3403 10.3765 12.3136 10.4099 12.2801C10.4783 12.2108 10.5167 12.1174 10.5167 12.0201C10.5167 11.9227 10.4783 11.8293 10.4099 11.7601L6.97988 8.33008C6.86355 8.21512 6.78424 8.068 6.75217 7.90762C6.72009 7.74724 6.73671 7.58094 6.79988 7.43008C6.86151 7.27915 6.96674 7.15002 7.10211 7.05918C7.23748 6.96834 7.39686 6.91991 7.55988 6.92008C7.77988 6.92008 7.98988 7.01008 8.13988 7.16008L13.9399 12.9501C14.0031 13.0022 14.0818 13.0318 14.1637 13.0344C14.2455 13.0369 14.3259 13.0122 14.3922 12.9642C14.4586 12.9162 14.5071 12.8475 14.5302 12.7689C14.5533 12.6904 14.5497 12.6064 14.5199 12.5301L13.3999 10.1701C13.1399 9.61008 13.1999 9.19008 13.5999 8.88008C13.6775 8.82137 13.7665 8.77949 13.8612 8.7571C13.9559 8.73472 14.0542 8.73233 14.1499 8.75008C14.4299 8.80008 14.6999 8.98008 14.8799 9.25008L17.0799 13.1101C18.3799 15.4901 17.9499 17.7001 15.7899 19.8601C15.2594 20.4172 14.5989 20.834 13.8676 21.0732C13.1363 21.3123 12.3572 21.3662 11.5999 21.2301C10.0445 20.9156 8.62343 20.1301 7.52988 18.9801H7.51988ZM10.7499 6.48008L12.8699 8.59008C12.4599 9.09008 12.3999 9.76008 12.7399 10.4901L12.9599 10.9501L9.43988 7.42008C9.37895 7.30951 9.34471 7.18623 9.33988 7.06008C9.33988 6.83008 9.42988 6.63008 9.57988 6.47008C9.73781 6.32026 9.9472 6.23674 10.1649 6.23674C10.3826 6.23674 10.592 6.32026 10.7499 6.47008V6.48008ZM18.1099 8.18008C17.9738 7.96287 17.7943 7.77613 17.5827 7.63158C17.371 7.48703 17.1318 7.38779 16.8799 7.34008C16.6847 7.30556 16.4845 7.31173 16.2917 7.35819C16.099 7.40465 15.918 7.4904 15.7599 7.61008C15.4599 7.85008 15.2599 8.16008 15.1799 8.50008C14.9299 8.25008 14.6099 8.10008 14.2699 8.03008C13.9899 7.99008 13.7099 8.03008 13.4499 8.13008L11.2699 5.95008C10.9776 5.6594 10.5821 5.49624 10.1699 5.49624C9.75765 5.49624 9.36218 5.6594 9.06988 5.95008C8.86988 6.15008 8.73988 6.39008 8.66988 6.65008C8.47332 6.45135 8.22697 6.3091 7.9566 6.23817C7.68623 6.16725 7.40178 6.17028 7.13298 6.24693C6.86418 6.32359 6.62091 6.47105 6.42862 6.67391C6.23632 6.87677 6.10206 7.12757 6.03988 7.40008C5.74649 7.10449 5.34941 6.93495 4.933 6.92748C4.51659 6.92002 4.11369 7.0752 3.80988 7.36008C3.51921 7.65238 3.35605 8.04785 3.35605 8.46008C3.35605 8.87231 3.51921 9.26778 3.80988 9.56008C3.56988 9.66008 3.30988 9.80008 3.08988 10.0101C2.79921 10.3024 2.63605 10.6979 2.63605 11.1101C2.63605 11.5223 2.79921 11.9178 3.08988 12.2101L3.60988 12.7301C3.34131 12.7944 3.09461 12.9288 2.89501 13.1197C2.6954 13.3105 2.55004 13.5509 2.47376 13.8164C2.39749 14.0818 2.39305 14.3627 2.46089 14.6304C2.52872 14.8981 2.66641 15.143 2.85988 15.3401L6.99988 19.5001C8.20523 20.7587 9.76985 21.6143 11.4799 21.9501C12.6243 22.1658 13.808 21.9897 14.8399 21.4501C15.6096 21.5497 16.3919 21.4648 17.1222 21.2022C17.8526 20.9396 18.5099 20.507 19.0399 19.9401C21.7899 17.1701 21.5799 14.2001 20.4699 12.3501L18.0999 8.18008H18.1099Z" fill="#39CA88"/>
</g>
</svg>
