<svg width="30" height="30" viewBox="0 0 30 30" fill="none" xmlns="http://www.w3.org/2000/svg">
<path fill-rule="evenodd" clip-rule="evenodd" d="M7.4726 15.326C7.4744 19.9053 7.48567 23.7303 7.49762 23.826L7.51933 24L7.91964 23.7454C8.73108 23.2292 12.2575 20.9622 13.3571 20.2498C14.5312 19.4892 14.8647 19.2927 14.9816 19.2927C15.1376 19.2927 15.5118 19.52 18.144 21.2141C21.8769 23.6164 22.4868 24.0029 22.5164 23.9846C22.5353 23.9728 22.5474 20.6681 22.5474 15.4827V7H15.0083H7.46929L7.4726 15.326ZM21.5466 15.0874C21.5466 21.4098 21.5412 22.1706 21.496 22.1532C21.4681 22.1425 20.4211 21.4747 19.1692 20.6691C16.3124 18.8309 15.9751 18.62 15.6162 18.4473C15.3343 18.3117 15.3148 18.3073 14.9917 18.3073C14.469 18.3073 14.7484 18.1514 11.3723 20.3275C10.2806 21.0312 9.18102 21.7397 8.92873 21.902L8.47005 22.1971V15.0996V8.00213H15.0083H21.5466V15.0874ZM4.62494 8.73996C4.40801 8.79113 4.23705 8.9001 4.11732 9.06351L4.00167 9.22138L4.00083 14.7182L4 20.215L4.10842 20.3164C4.44987 20.636 4.57414 20.6623 5.74165 20.6623H6.66869V14.683V8.70361L5.70963 8.70695C5.18216 8.70883 4.69406 8.72366 4.62494 8.73996ZM23.348 14.6852V20.6667L24.3571 20.6562L25.3662 20.6456L25.5497 20.5581C25.6506 20.51 25.7906 20.4198 25.8608 20.3577L25.9884 20.2448L25.9942 14.7498L26 9.25478L25.9309 9.12117C25.8408 8.9467 25.609 8.79157 25.3651 8.74253C25.246 8.71858 24.8207 8.70361 24.2598 8.70361H23.348V14.6852ZM5.63457 14.683V19.6602H5.33985H5.04509L5.02294 16.7791C5.01077 15.1945 5.00079 12.9547 5.00079 11.8019L5.00076 9.70574H5.31766H5.63457V14.683ZM24.9826 14.683V19.6602H24.6657H24.3487V14.683V9.70574H24.6657H24.9826V14.683Z" fill="#39CA88"/>
</svg>
