<svg width="30" height="30" viewBox="0 0 30 30" fill="none" xmlns="http://www.w3.org/2000/svg">
<path fill-rule="evenodd" clip-rule="evenodd" d="M6.77932 8.7887C5.25763 10.3225 4.00699 11.5943 4.00008 11.6149C3.98421 11.6626 6.33394 14.0157 6.39737 14.0157C6.42322 14.0157 6.76302 13.6941 7.15245 13.301L7.86047 12.5863L7.87984 14.6453C7.90125 16.9199 7.90493 16.9653 8.12321 17.6562C8.43548 18.6447 8.98514 19.5025 9.7781 20.2387C10.5314 20.9381 11.2677 21.3347 12.3129 21.6042C12.6835 21.6998 12.7353 21.7043 13.7826 21.7319C14.3796 21.7477 14.9847 21.7614 15.127 21.7624L15.3859 21.7642V20.0305V18.2969L14.2753 18.2819C13.0434 18.2653 12.9938 18.2581 12.5467 18.0336C12.3577 17.9387 12.2224 17.8338 11.9956 17.6066C11.6661 17.2766 11.5195 17.055 11.3842 16.6821L11.2954 16.4371L11.2841 14.5167L11.2728 12.5963L11.9881 13.306C12.3815 13.6964 12.7245 14.0161 12.7503 14.0165C12.7761 14.017 13.3273 13.481 13.9751 12.8254L15.1529 11.6334L14.8948 11.3634C14.246 10.6847 9.59813 6 9.57358 6C9.55842 6 8.30101 7.25489 6.77932 8.7887ZM14.6176 8.97584L14.6176 10.6992L15.7282 10.7172C16.8214 10.735 16.8431 10.7367 17.1057 10.8249C17.2525 10.8742 17.4601 10.9677 17.5671 11.0326C18.1541 11.3892 18.6113 12.0629 18.693 12.692C18.7101 12.823 18.7245 13.7149 18.725 14.674L18.7261 16.4177L18.0123 15.701C17.6198 15.3068 17.2808 14.9843 17.2591 14.9843C17.2123 14.9843 14.8852 17.3241 14.885 17.3715C14.8849 17.3894 15.265 17.7876 15.7297 18.2565C16.1944 18.7254 17.4405 19.9845 18.4989 21.0545C19.5573 22.1246 20.439 23 20.4582 23C20.4923 23 25.982 17.4473 26 17.3947C26.0109 17.3626 23.9221 15.2316 23.7323 15.0813L23.5969 14.974L22.865 15.7053L22.1331 16.4366L22.1315 15.0174C22.1296 13.3109 22.0899 12.1814 22.0206 11.8615C21.9566 11.5665 21.7277 10.9014 21.5804 10.5823C21.2127 9.78596 20.5069 8.93973 19.7184 8.34987C19.1446 7.92063 18.5467 7.63334 17.8177 7.43655C17.366 7.31464 16.829 7.27406 15.4944 7.26104L14.6176 7.25246V8.97584ZM13.6219 11.6176C13.6336 11.7401 13.621 11.7567 13.1877 12.1867L12.7415 12.6297L11.5168 11.385C10.8432 10.7003 10.2808 10.1405 10.267 10.1409C10.2337 10.1417 10.239 14.4827 10.2738 15.669C10.2998 16.5566 10.3058 16.6186 10.3924 16.888C10.7022 17.8517 11.4161 18.6604 12.2824 19.029C12.7426 19.2249 12.9691 19.2654 13.7074 19.284L14.3838 19.3011V20.0203V20.7394L13.6208 20.7195C12.7955 20.6979 12.6246 20.6699 12.023 20.4577C11.3531 20.2215 10.9111 19.932 10.3237 19.3446C9.67653 18.6975 9.35597 18.181 9.092 17.3603C9.02489 17.1517 8.95602 16.8736 8.93898 16.7425C8.92195 16.6113 8.8981 15.1663 8.88601 13.5314C8.87388 11.8966 8.85464 10.4701 8.84318 10.3615L8.82241 10.164L7.61005 11.3952L6.39773 12.6263L5.89824 12.1269L5.39878 11.6275L7.47802 9.51296L9.55725 7.39841L11.5836 9.44489C13.4632 11.3432 13.6108 11.5006 13.6219 11.6176ZM16.6217 8.30355C17.2467 8.3298 17.3371 8.34149 17.6572 8.43745C18.4189 8.66579 19.0793 9.062 19.6625 9.64047C20.0849 10.0594 20.3675 10.4334 20.5921 10.8707C20.8183 11.3113 21.0247 11.9479 21.0642 12.3272C21.0815 12.4935 21.1041 13.8771 21.1144 15.4018C21.1247 16.9264 21.1414 18.3248 21.1515 18.5094L21.1699 18.8449L22.3947 17.6148L23.6194 16.3847L24.1156 16.8824L24.6117 17.38L22.5337 19.4882L20.4557 21.5964L18.7642 19.8846C16.2761 17.3668 16.3879 17.4852 16.3879 17.3677C16.3879 17.2837 16.4604 17.1913 16.8189 16.8185L17.2498 16.3703L18.4751 17.6144C19.1491 18.2987 19.7142 18.8585 19.731 18.8585C19.7694 18.8585 19.7676 14.4471 19.7287 13.2976C19.6981 12.3924 19.6724 12.2368 19.4776 11.774C19.1629 11.0261 18.5727 10.3987 17.8479 10.0414C17.3395 9.79087 17.1009 9.74097 16.2961 9.71706L15.6197 9.69698V8.98405V8.27112L15.7783 8.27296C15.8656 8.27396 16.2451 8.28772 16.6217 8.30355Z" fill="#39CA88"/>
</svg>
