<svg width="21" height="21" viewBox="0 0 21 21" fill="none" xmlns="http://www.w3.org/2000/svg">
<path fill-rule="evenodd" clip-rule="evenodd" d="M8.5257 8.37055H11.3775V9.73297C11.7883 8.94939 12.8418 8.24536 14.4244 8.24536C17.4582 8.24536 18.1784 9.80514 18.1784 12.667V17.9671H15.107V13.3187C15.107 11.689 14.6962 10.7699 13.6504 10.7699C12.1999 10.7699 11.5971 11.7604 11.5971 13.318V17.9671H8.5257V8.37055ZM3.25897 17.8419H6.3304V8.24536H3.25897V17.8419ZM6.77038 5.11621C6.77049 5.36312 6.71944 5.60759 6.62018 5.83541C6.52092 6.06323 6.37543 6.26986 6.19218 6.44328C5.82085 6.79723 5.31821 6.99536 4.79468 6.99414C4.27207 6.9938 3.7706 6.79618 3.39872 6.44402C3.21613 6.27 3.07114 6.06315 2.97205 5.8353C2.87297 5.60745 2.82173 5.36308 2.82129 5.11621C2.82129 4.61764 3.02861 4.14042 3.39949 3.7884C3.77104 3.43576 4.27272 3.23806 4.79545 3.23828C5.31913 3.23828 5.82131 3.43638 6.19218 3.7884C6.56229 4.14042 6.77038 4.61764 6.77038 5.11621Z" fill="#FFFBED"/>
</svg>
