<svg width="30" height="30" viewBox="0 0 30 30" fill="none" xmlns="http://www.w3.org/2000/svg">
<path fill-rule="evenodd" clip-rule="evenodd" d="M6.80833 13.2453L6.81677 19.4907L10.6326 21.3199C12.7312 22.326 14.4525 23.1491 14.4576 23.1491C14.4627 23.1491 14.4631 20.34 14.4584 16.9066L14.45 10.664L13.55 10.229C12.2573 9.60417 7.18266 7.17314 6.975 7.07918L6.79993 7L6.80833 13.2453ZM19.3333 8.84696L15.55 10.6605L15.522 16.8907C15.5066 20.3173 15.5022 23.1291 15.5123 23.1392C15.529 23.1559 20.0769 20.9901 22.253 19.9292L23.1561 19.4889L23.1777 19.3086C23.1896 19.2095 23.1995 16.4068 23.1996 13.0805C23.1998 8.26406 23.1914 7.03267 23.1582 7.033C23.1353 7.0332 21.4141 7.8495 19.3333 8.84696ZM10.2001 9.74291C11.3275 10.2837 12.5238 10.8584 12.8584 11.0201L13.4667 11.314V16.4308V21.5477L13.3687 21.5059C13.3148 21.4829 12.0499 20.8785 10.5577 20.1627L7.84475 18.8614L7.82245 16.8427C7.81019 15.7324 7.80012 13.4239 7.80012 11.7128L7.80009 8.60171L7.97508 8.68069C8.07132 8.72413 9.07257 9.20212 10.2001 9.74291ZM22.1951 14.874C22.1977 15.9843 22.1898 17.3342 22.1777 17.8739L22.1556 18.8551L21.4695 19.1883C20.7063 19.5589 16.6406 21.5102 16.5749 21.5374C16.5415 21.5512 16.5348 20.5259 16.5415 16.428L16.55 11.3013L19.3499 9.95867L22.1499 8.61602L22.1702 10.7356C22.1813 11.9014 22.1925 13.7637 22.1951 14.874ZM4.0084 16.6508L4.0168 24L8.63341 23.9916C11.1725 23.9869 13.2875 23.9742 13.3334 23.9633C13.4421 23.9374 13.3902 23.9113 9.4834 22.0328C7.76009 21.2041 6.25261 20.4744 6.13344 20.4112C5.74438 20.2047 5.78504 20.8532 5.77294 14.6654L5.76244 9.30159H4.88122H4L4.0084 16.6508ZM24.2332 14.6864V20.0713L24.1071 20.2004C23.9093 20.4029 23.5553 20.5822 19.8833 22.3402C17.1759 23.6363 16.5929 23.9267 16.6423 23.9543C16.6674 23.9684 18.7794 23.9844 21.3356 23.9899L25.9832 24L25.9916 16.6508L26 9.30159H25.1166H24.2332V14.6864ZM5.43515 21.1879C5.51671 21.2383 6.37804 21.6627 7.34923 22.1309L9.11497 22.9823H7.05756H5.00012V21.8632V20.7442L5.14349 20.9202C5.22235 21.017 5.35358 21.1375 5.43515 21.1879ZM24.9999 21.8645V22.9823H22.9418H20.8838L22.0168 22.4369C24.2145 21.379 24.5684 21.1861 24.8383 20.8991C24.9171 20.8152 24.9857 20.7467 24.9907 20.7467C24.9957 20.7467 24.9999 21.2497 24.9999 21.8645Z" fill="#39CA88"/>
</svg>
