<svg xmlns="http://www.w3.org/2000/svg" width="24" height="24" viewBox="0 0 24 24" fill="none">
  <mask id="mask0_57_66" style="mask-type:luminance" maskUnits="userSpaceOnUse" x="0" y="0" width="24" height="24">
    <path d="M24 0H0V24H24V0Z" fill="white"/>
  </mask>
  <g mask="url(#mask0_57_66)">
    <path d="M12 0C5.3725 0 0 5.3725 0 12C0 18.6275 5.3725 24 12 24C18.6275 24 24 18.6275 24 12C24 5.3725 18.6275 0 12 0ZM16.8813 9.83C16.8862 9.9325 16.8875 10.035 16.8875 10.135C16.8875 13.26 14.5113 16.8612 10.1638 16.8612C8.87912 16.8634 7.62121 16.4944 6.54125 15.7987C6.725 15.8212 6.91375 15.83 7.105 15.83C8.2125 15.83 9.23125 15.4538 10.04 14.8188C9.54715 14.8091 9.06959 14.6459 8.67389 14.3519C8.27819 14.0579 7.98406 13.6478 7.8325 13.1788C8.18644 13.2461 8.55106 13.2319 8.89875 13.1375C8.36381 13.0293 7.88275 12.7395 7.53714 12.3171C7.19152 11.8947 7.00263 11.3658 7.0025 10.82V10.7913C7.32125 10.9675 7.68625 11.075 8.07375 11.0875C7.57225 10.7537 7.21723 10.2408 7.08131 9.65392C6.94538 9.06699 7.03881 8.45032 7.3425 7.93C7.93619 8.66 8.67658 9.25718 9.51571 9.68289C10.3548 10.1086 11.274 10.3533 12.2137 10.4012C12.0943 9.89414 12.1457 9.36176 12.36 8.88688C12.5743 8.412 12.9395 8.02124 13.3988 7.77533C13.8582 7.52942 14.3858 7.44215 14.8999 7.52709C15.4139 7.61203 15.8855 7.86441 16.2412 8.245C16.7702 8.14034 17.2775 7.94632 17.7413 7.67125C17.565 8.21892 17.1958 8.68397 16.7025 8.98C17.1711 8.92356 17.6286 8.7976 18.06 8.60625C17.7431 9.08112 17.3439 9.49555 16.8813 9.83Z" fill="#39CA88"/>
  </g>
  <path d="M12 0C5.3725 0 0 5.3725 0 12C0 18.6275 5.3725 24 12 24C18.6275 24 24 18.6275 24 12C24 5.3725 18.6275 0 12 0ZM16.8813 9.83C16.8862 9.9325 16.8875 10.035 16.8875 10.135C16.8875 13.26 14.5113 16.8612 10.1638 16.8612C8.87912 16.8634 7.62121 16.4944 6.54125 15.7987C6.725 15.8212 6.91375 15.83 7.105 15.83C8.2125 15.83 9.23125 15.4538 10.04 14.8188C9.54715 14.8091 9.06959 14.6459 8.67389 14.3519C8.27819 14.0579 7.98406 13.6478 7.8325 13.1788C8.18644 13.2461 8.55106 13.2319 8.89875 13.1375C8.36381 13.0293 7.88275 12.7395 7.53714 12.3171C7.19152 11.8947 7.00263 11.3658 7.0025 10.82V10.7913C7.32125 10.9675 7.68625 11.075 8.07375 11.0875C7.57225 10.7537 7.21723 10.2408 7.08131 9.65392C6.94538 9.06699 7.03881 8.45032 7.3425 7.93C7.93619 8.66 8.67658 9.25718 9.51571 9.68289C10.3548 10.1086 11.274 10.3533 12.2137 10.4012C12.0943 9.89414 12.1457 9.36176 12.36 8.88688C12.5743 8.412 12.9395 8.02124 13.3988 7.77533C13.8582 7.52942 14.3858 7.44215 14.8999 7.52709C15.4139 7.61203 15.8855 7.86441 16.2412 8.245C16.7702 8.14034 17.2775 7.94632 17.7413 7.67125C17.565 8.21892 17.1958 8.68397 16.7025 8.98C17.1711 8.92356 17.6286 8.7976 18.06 8.60625C17.7431 9.08112 17.3439 9.49555 16.8813 9.83Z" fill="white"/>
  <circle cx="12" cy="12" r="12" fill="white"/>
  <path fill-rule="evenodd" clip-rule="evenodd" d="M5 6.04663C5 6.08593 6.17088 7.54768 7.3302 8.9556C8.67782 10.5922 10.2148 12.5049 10.2147 12.5452C10.2147 12.5726 10.0318 12.7935 9.80825 13.0361C9.25046 13.6416 6.40653 16.7008 5.78691 17.3618C5.50912 17.6581 5.28188 17.923 5.28188 17.9505C5.28188 17.9866 5.57766 17.9972 6.34889 17.9887L7.41585 17.9768L8.60838 16.6975C9.26427 15.9939 10.129 15.0661 10.53 14.6357C10.971 14.1625 11.2802 13.8653 11.3124 13.8837C11.3794 13.922 11.4175 13.967 12.1809 14.909C13.5168 16.5576 13.7521 16.8475 14.1865 17.38C14.4334 17.6825 14.6608 17.9453 14.6919 17.9638C14.7864 18.0202 19 18.0069 19 17.9502C19 17.9079 18.115 16.7862 16.9328 15.33C16.456 14.7427 14.6387 12.4845 14.0288 11.7215C13.7494 11.3719 13.5529 11.0863 13.5674 11.0507C13.5813 11.0167 14.413 10.1109 15.4155 9.03796C18.1164 6.14729 18.1991 6.05673 18.1677 6.02722C18.1517 6.01222 17.6696 6 17.0962 6H16.0538L14.9548 7.17571C14.3503 7.82233 13.5525 8.67592 13.1818 9.07259C12.8112 9.46921 12.5019 9.79376 12.4944 9.79376C12.4786 9.79376 12.2641 9.53058 10.9665 7.91894C10.439 7.26385 9.87745 6.56906 9.71847 6.37496L9.4295 6.02206L7.21472 6.01059C5.65758 6.00256 5 6.01323 5 6.04663ZM9.35156 7.9098C9.98842 8.70905 11.4344 10.5069 12.3039 11.5804C12.6183 11.9685 13.3703 12.9015 13.9749 13.6537C14.5796 14.4058 15.3784 15.3984 15.7501 15.8594L16.4258 16.6975L15.8509 16.71C15.5347 16.7168 15.2717 16.7168 15.2665 16.71C15.2104 16.6363 8.67636 8.60896 8.21854 8.05128C7.87996 7.63881 7.58685 7.27656 7.56717 7.2462C7.53921 7.20315 7.66827 7.19146 8.15662 7.19296L8.78188 7.19481L9.35156 7.9098Z" fill="black"/>
</svg>